<svg width="12" height="12" viewBox="0 0 12 12" fill="none" xmlns="http://www.w3.org/2000/svg">
<path d="M5.5573 0.172021C5.58286 0.120373 5.62235 0.0768985 5.67131 0.0465026C5.72027 0.0161068 5.77675 0 5.83438 0C5.89201 0 5.94849 0.0161068 5.99745 0.0465026C6.04641 0.0768985 6.0859 0.120373 6.11147 0.172021L7.45897 2.90144C7.54774 3.08109 7.67877 3.23651 7.84083 3.35437C8.00289 3.47223 8.19112 3.549 8.38938 3.5781L11.4029 4.0191C11.46 4.02738 11.5136 4.05146 11.5578 4.08864C11.6019 4.12581 11.6347 4.17459 11.6526 4.22946C11.6704 4.28433 11.6725 4.34309 11.6587 4.39911C11.6449 4.45513 11.6157 4.50616 11.5744 4.54644L9.39505 6.6686C9.25133 6.80866 9.14379 6.98155 9.0817 7.17239C9.01962 7.36322 9.00483 7.56629 9.03863 7.7641L9.55313 10.7624C9.56321 10.8195 9.55705 10.8783 9.53534 10.932C9.51363 10.9857 9.47726 11.0323 9.43037 11.0664C9.38348 11.1004 9.32795 11.1206 9.27014 11.1246C9.21232 11.1286 9.15454 11.1163 9.10338 11.0891L6.40955 9.67277C6.23205 9.57957 6.03457 9.53088 5.83409 9.53088C5.63361 9.53088 5.43613 9.57957 5.25863 9.67277L2.56538 11.0891C2.51424 11.1162 2.45653 11.1284 2.39881 11.1243C2.34109 11.1202 2.28569 11.0999 2.23889 11.0659C2.19209 11.0319 2.15579 10.9854 2.1341 10.9317C2.11241 10.8781 2.10622 10.8194 2.11622 10.7624L2.63013 7.76469C2.66408 7.56678 2.64937 7.36359 2.58728 7.17263C2.52519 6.98168 2.41757 6.80869 2.27372 6.6686L0.0943832 4.54702C0.0527296 4.50679 0.0232125 4.45567 0.00919458 4.39948C-0.00482337 4.34329 -0.00277863 4.2843 0.0150958 4.22922C0.0329702 4.17413 0.0659556 4.12518 0.110295 4.08793C0.154634 4.05068 0.208543 4.02663 0.265883 4.01852L3.2788 3.5781C3.47728 3.54923 3.66578 3.47255 3.82806 3.35468C3.99034 3.23681 4.12154 3.08126 4.21038 2.90144L5.5573 0.172021Z" fill="#FACC15" stroke="#FACC15" stroke-width="2" stroke-linecap="round" stroke-linejoin="round"/>
</svg>
