<svg width="67" height="12" viewBox="0 0 67 12" fill="none" xmlns="http://www.w3.org/2000/svg">
<path d="M60.9102 0C62.1583 0 62.6111 0.135985 63.0674 0.390625C63.5237 0.645265 63.8819 1.01898 64.126 1.49512C64.3699 1.9711 64.5 2.44331 64.5 3.74512V8.25488C64.5 9.55669 64.3699 10.0289 64.126 10.5049C63.8819 10.981 63.5237 11.3547 63.0674 11.6094C62.6111 11.864 62.1583 12 60.9102 12H46.0898C44.8417 12 44.3889 11.864 43.9326 11.6094C43.4763 11.3547 43.1181 10.981 42.874 10.5049C42.6301 10.0289 42.5 9.55669 42.5 8.25488V3.74512C42.5 2.44331 42.6301 1.9711 42.874 1.49512C43.1181 1.01898 43.4763 0.645265 43.9326 0.390625C44.3889 0.135985 44.8417 0 46.0898 0H60.9102ZM46.0898 1.04395C45.103 1.04395 44.7581 1.11312 44.4043 1.31055C44.1224 1.46786 43.9067 1.69223 43.7559 1.98633C43.5666 2.35556 43.5 2.71552 43.5 3.74512V8.25488C43.5 9.28448 43.5666 9.64444 43.7559 10.0137C43.9067 10.3078 44.1224 10.5321 44.4043 10.6895C44.7581 10.8869 45.103 10.9561 46.0898 10.9561H60.9102C61.897 10.9561 62.2419 10.8869 62.5957 10.6895C62.8776 10.5321 63.0933 10.3078 63.2441 10.0137C63.4334 9.64444 63.5 9.28448 63.5 8.25488V3.74512C63.5 2.71552 63.4334 2.35556 63.2441 1.98633C63.0933 1.69223 62.8776 1.46786 62.5957 1.31055C62.2419 1.11312 61.897 1.04395 60.9102 1.04395H46.0898ZM65.5 3.85059C65.5132 3.85761 67 4.65288 67 5.9375C66.9999 7.22774 65.5 8.02441 65.5 8.02441V3.85059Z" fill="#191D31"/>
<rect x="44.5" y="1.99983" width="18" height="8" rx="1.6" fill="#191D31"/>
<path d="M1.5 7.45028C1.77879 7.45028 1.91826 7.45066 2.03418 7.47372C2.51001 7.56839 2.88172 7.94034 2.97656 8.4161C2.99961 8.53197 3 8.67174 3 8.95028V10.1241C3 10.4027 2.99956 10.5424 2.97656 10.6583C2.88188 11.1343 2.51019 11.5069 2.03418 11.6016C1.91826 11.6247 1.77879 11.6241 1.5 11.6241C1.22121 11.6241 1.08174 11.6247 0.96582 11.6016C0.489812 11.5069 0.118123 11.1343 0.0234375 10.6583C0.000441025 10.5424 0 10.4027 0 10.1241V8.95028C4.80817e-09 8.67174 0.000390381 8.53197 0.0234375 8.4161C0.118285 7.94034 0.489994 7.56839 0.96582 7.47372C1.08174 7.45066 1.22121 7.45028 1.5 7.45028ZM6.2998 5.36337C6.57852 5.36337 6.71809 5.36377 6.83398 5.3868C7.30991 5.48147 7.68255 5.85331 7.77734 6.32919C7.80039 6.44506 7.7998 6.5848 7.7998 6.86337V10.1241C7.7998 10.4025 7.80031 10.5425 7.77734 10.6583C7.68266 11.1343 7.31001 11.507 6.83398 11.6016C6.71809 11.6247 6.57849 11.6241 6.2998 11.6241C6.02113 11.6241 5.88152 11.6247 5.76562 11.6016C5.2897 11.5069 4.91792 11.1342 4.82324 10.6583C4.80025 10.5424 4.7998 10.4026 4.7998 10.1241V6.86337C4.7998 6.5848 4.80019 6.44506 4.82324 6.32919C4.91805 5.85345 5.28986 5.48154 5.76562 5.3868C5.88152 5.36375 6.02113 5.36337 6.2998 5.36337ZM10.9004 2.96298C11.1789 2.96298 11.3187 2.96337 11.4346 2.98641C11.9104 3.08124 12.2823 3.45389 12.377 3.92977C12.3999 4.04554 12.4004 4.18484 12.4004 4.46298V10.1241C12.4004 10.4028 12.4 10.5424 12.377 10.6583C12.2823 11.1342 11.9104 11.5068 11.4346 11.6016C11.3187 11.6247 11.1789 11.6241 10.9004 11.6241C10.6219 11.6241 10.4821 11.6246 10.3662 11.6016C9.89018 11.507 9.51754 11.1343 9.42285 10.6583C9.39982 10.5424 9.40039 10.4028 9.40039 10.1241V4.46298C9.40039 4.18487 9.39991 4.04553 9.42285 3.92977C9.51754 3.45374 9.89018 3.0811 10.3662 2.98641C10.4821 2.96342 10.6219 2.96298 10.9004 2.96298ZM15.5996 0.45907C15.8782 0.45907 16.0179 0.459492 16.1338 0.482508C16.6098 0.577194 16.9825 0.948873 17.0771 1.42489C17.1002 1.54081 17.0996 1.68028 17.0996 1.95907V10.1241C17.0996 10.4028 17.1002 10.5424 17.0771 10.6583C16.9825 11.1343 16.6098 11.507 16.1338 11.6016C16.0179 11.6246 15.8781 11.6241 15.5996 11.6241C15.3211 11.6241 15.1813 11.6247 15.0654 11.6016C14.5896 11.5069 14.2177 11.1342 14.123 10.6583C14.1 10.5424 14.0996 10.4028 14.0996 10.1241V1.95907C14.0996 1.68028 14.1 1.54081 14.123 1.42489C14.2177 0.94906 14.5897 0.57735 15.0654 0.482508C15.1813 0.45946 15.3211 0.45907 15.5996 0.45907Z" fill="#191D31"/>
<path fill-rule="evenodd" clip-rule="evenodd" d="M29.8004 2.64688C32.0348 2.64698 34.1838 3.54286 35.8031 5.14936C35.9251 5.27339 36.12 5.27182 36.2401 5.14585L37.4058 3.91829C37.4666 3.8544 37.5005 3.76785 37.5 3.6778C37.4995 3.58776 37.4646 3.50163 37.4031 3.43849C33.1527 -0.811923 26.4474 -0.811923 22.197 3.43849C22.1355 3.50158 22.1005 3.58768 22.1 3.67773C22.0994 3.76778 22.1333 3.85435 22.194 3.91829L23.36 5.14585C23.48 5.27201 23.6751 5.27358 23.797 5.14936C25.4165 3.54276 27.5658 2.64688 29.8004 2.64688ZM29.8004 6.6408C31.0281 6.64072 32.2119 7.11687 33.1219 7.97674C33.245 8.09877 33.4389 8.09613 33.5589 7.97078L34.7232 6.74321C34.7845 6.67882 34.8185 6.59147 34.8177 6.50071C34.8168 6.40994 34.7811 6.32333 34.7185 6.26025C31.9473 3.57043 27.6558 3.57043 24.8847 6.26025C24.8221 6.32333 24.7864 6.40998 24.7855 6.50078C24.7847 6.59157 24.8189 6.67892 24.8803 6.74321L26.0443 7.97078C26.1643 8.09613 26.3582 8.09877 26.4812 7.97674C27.3906 7.11744 28.5736 6.64133 29.8004 6.6408ZM32.0379 9.57073C32.1002 9.50696 32.1345 9.4192 32.1327 9.32818C32.1309 9.23716 32.0932 9.15094 32.0285 9.08987C30.7423 7.95467 28.8585 7.95467 27.5723 9.08987C27.5075 9.15089 27.4698 9.23708 27.4679 9.3281C27.4661 9.41913 27.5003 9.50691 27.5625 9.57073L29.5769 11.6916C29.6359 11.7539 29.7164 11.789 29.8004 11.789C29.8844 11.789 29.9649 11.7539 30.0239 11.6916L32.0379 9.57073Z" fill="#191D31"/>
</svg>
