<svg width="14" height="14" viewBox="0 0 14 14" fill="none" xmlns="http://www.w3.org/2000/svg">
<g clip-path="url(#clip0_13_382)">
<path d="M4.08337 5.66667V3.91667C4.08337 3.14312 4.39066 2.40125 4.93765 1.85427C5.48463 1.30729 6.22649 1 7.00004 1C7.77359 1 8.51545 1.30729 9.06244 1.85427C9.60942 2.40125 9.91671 3.14312 9.91671 3.91667V5.66667" stroke="#713F12" stroke-width="2" stroke-linecap="round" stroke-linejoin="round"/>
<path d="M11.0833 5.66669H2.91667C2.27233 5.66669 1.75 6.18902 1.75 6.83335V11.5C1.75 12.1444 2.27233 12.6667 2.91667 12.6667H11.0833C11.7277 12.6667 12.25 12.1444 12.25 11.5V6.83335C12.25 6.18902 11.7277 5.66669 11.0833 5.66669Z" stroke="#713F12" stroke-width="2" stroke-linecap="round" stroke-linejoin="round"/>
<path d="M6.99996 9.91667C7.32213 9.91667 7.58329 9.6555 7.58329 9.33333C7.58329 9.01117 7.32213 8.75 6.99996 8.75C6.67779 8.75 6.41663 9.01117 6.41663 9.33333C6.41663 9.6555 6.67779 9.91667 6.99996 9.91667Z" stroke="#713F12" stroke-width="2" stroke-linecap="round" stroke-linejoin="round"/>
</g>
<defs>
<clipPath id="clip0_13_382">
<rect width="14" height="14" fill="white"/>
</clipPath>
</defs>
</svg>
