<svg width="24" height="24" viewBox="0 0 24 24" fill="none" xmlns="http://www.w3.org/2000/svg">
<path d="M13 6.99999L8.70005 2.69999C8.24842 2.25054 7.6372 1.99823 7.00005 1.99823C6.36289 1.99823 5.75167 2.25054 5.30005 2.69999L2.70005 5.29999C2.2506 5.75161 1.99829 6.36283 1.99829 6.99999C1.99829 7.63714 2.2506 8.24836 2.70005 8.69999L7.00005 13" stroke="#9333EA" stroke-width="2" stroke-linecap="round" stroke-linejoin="round"/>
<path d="M8 6L10 4" stroke="#9333EA" stroke-width="2" stroke-linecap="round" stroke-linejoin="round"/>
<path d="M18 16L20 14" stroke="#9333EA" stroke-width="2" stroke-linecap="round" stroke-linejoin="round"/>
<path d="M17 11L21.3 15.3C22.24 16.24 22.24 17.76 21.3 18.7L18.7 21.3C17.76 22.24 16.24 22.24 15.3 21.3L11 17" stroke="#9333EA" stroke-width="2" stroke-linecap="round" stroke-linejoin="round"/>
<path d="M21.1741 6.81201C21.7028 6.28344 21.9998 5.56648 21.9999 4.81887C22 4.07125 21.7031 3.35422 21.1746 2.82551C20.646 2.29681 19.929 1.99973 19.1814 1.99963C18.4338 1.99954 17.7168 2.29644 17.1881 2.82501L3.84206 16.174C3.60988 16.4055 3.43817 16.6905 3.34206 17.004L2.02106 21.356C1.99521 21.4425 1.99326 21.5344 2.01541 21.6219C2.03756 21.7094 2.08298 21.7892 2.14685 21.853C2.21073 21.9168 2.29068 21.9621 2.37821 21.9841C2.46575 22.0061 2.55762 22.004 2.64406 21.978L6.99706 20.658C7.31023 20.5628 7.59523 20.3921 7.82706 20.161L21.1741 6.81201Z" stroke="#9333EA" stroke-width="2" stroke-linecap="round" stroke-linejoin="round"/>
<path d="M15 5L19 9" stroke="#9333EA" stroke-width="2" stroke-linecap="round" stroke-linejoin="round"/>
</svg>
