<svg width="20" height="20" viewBox="0 0 20 20" fill="none" xmlns="http://www.w3.org/2000/svg">
<path d="M8.74996 2.5L6.66663 7.5L9.99996 18.3333L13.3333 7.5L11.25 2.5" stroke="#3B82F6" stroke-width="2" stroke-linecap="round" stroke-linejoin="round"/>
<path d="M14.1667 2.5C14.4254 2.5 14.6806 2.56024 14.912 2.67595C15.1434 2.79167 15.3447 2.95967 15.5 3.16667L18 6.5C18.2144 6.78597 18.3312 7.13329 18.3332 7.49071C18.3351 7.84813 18.2221 8.19671 18.0108 8.485L11.3525 17.64C11.1981 17.8546 10.9949 18.0293 10.7597 18.1499C10.5244 18.2705 10.2639 18.3333 9.99958 18.3333C9.73524 18.3333 9.4747 18.2705 9.23946 18.1499C9.00422 18.0293 8.80103 17.8546 8.64666 17.64L1.98833 8.485C1.77717 8.19662 1.66431 7.84799 1.66641 7.49057C1.66851 7.13316 1.78546 6.78588 1.99999 6.5L4.49833 3.16917C4.65348 2.96149 4.85494 2.79286 5.08669 2.6767C5.31844 2.56053 5.57409 2.50003 5.83333 2.5H14.1667Z" stroke="#3B82F6" stroke-width="2" stroke-linecap="round" stroke-linejoin="round"/>
<path d="M1.66663 7.5H18.3333" stroke="#3B82F6" stroke-width="2" stroke-linecap="round" stroke-linejoin="round"/>
</svg>
