<svg width="24" height="24" viewBox="0 0 24 24" fill="none" xmlns="http://www.w3.org/2000/svg">
<path d="M19.07 4.92999C17.5129 3.3712 15.4845 2.3703 13.3001 2.08278C11.1157 1.79526 8.89743 2.23721 6.98999 3.33999" stroke="#94A3B8" stroke-width="2" stroke-linecap="round" stroke-linejoin="round"/>
<path d="M4 6H4.01" stroke="#94A3B8" stroke-width="2" stroke-linecap="round" stroke-linejoin="round"/>
<path d="M2.28998 9.61998C1.91508 11.147 1.90556 12.741 2.26221 14.2724C2.61886 15.8038 3.33162 17.2296 4.34262 18.4339C5.35362 19.6382 6.63437 20.5871 8.08088 21.2036C9.5274 21.8201 11.0989 22.0868 12.6678 21.982C14.2367 21.8773 15.7588 21.404 17.1105 20.6007C18.4623 19.7973 19.6055 18.6866 20.4474 17.3585C21.2893 16.0305 21.8062 14.5227 21.9561 12.9574C22.1059 11.3922 21.8846 9.81364 21.31 8.34998" stroke="#94A3B8" stroke-width="2" stroke-linecap="round" stroke-linejoin="round"/>
<path d="M16.24 7.75998C15.6646 7.18115 14.977 6.72582 14.2195 6.42185C13.462 6.11789 12.6504 5.97169 11.8344 5.99219C11.0184 6.01269 10.2152 6.19947 9.47391 6.54109C8.7326 6.88271 8.0688 7.37199 7.5231 7.979C6.97741 8.586 6.56131 9.29797 6.30025 10.0713C6.0392 10.8447 5.93868 11.6632 6.00486 12.4767C6.07103 13.2903 6.30251 14.0818 6.68512 14.8028C7.06772 15.5238 7.59342 16.1591 8.23004 16.67" stroke="#94A3B8" stroke-width="2" stroke-linecap="round" stroke-linejoin="round"/>
<path d="M12 18H12.01" stroke="#94A3B8" stroke-width="2" stroke-linecap="round" stroke-linejoin="round"/>
<path d="M17.99 11.66C18.0444 12.6113 17.8714 13.562 17.4854 14.4332C17.0993 15.3044 16.5113 16.0712 15.77 16.67" stroke="#94A3B8" stroke-width="2" stroke-linecap="round" stroke-linejoin="round"/>
<path d="M12 14C13.1046 14 14 13.1046 14 12C14 10.8954 13.1046 10 12 10C10.8954 10 10 10.8954 10 12C10 13.1046 10.8954 14 12 14Z" stroke="#94A3B8" stroke-width="2" stroke-linecap="round" stroke-linejoin="round"/>
<path d="M13.41 10.59L19.07 4.92999" stroke="#94A3B8" stroke-width="2" stroke-linecap="round" stroke-linejoin="round"/>
</svg>
