<svg width="20" height="20" viewBox="0 0 20 20" fill="none" xmlns="http://www.w3.org/2000/svg">
<path d="M1.66663 7.91668C1.66664 6.98935 1.94795 6.08383 2.4734 5.31973C2.99885 4.55563 3.74372 3.96889 4.60963 3.63701C5.47554 3.30513 6.42176 3.24372 7.3233 3.46088C8.22485 3.67805 9.03931 4.16358 9.65913 4.85335C9.70278 4.90002 9.75556 4.93724 9.81419 4.96268C9.87282 4.98812 9.93605 5.00125 9.99996 5.00125C10.0639 5.00125 10.1271 4.98812 10.1857 4.96268C10.2444 4.93724 10.2971 4.90002 10.3408 4.85335C10.9587 4.1591 11.7733 3.66949 12.6763 3.44968C13.5793 3.22988 14.5279 3.2903 15.3957 3.62292C16.2635 3.95553 17.0094 4.54456 17.5342 5.3116C18.059 6.07864 18.3377 6.98731 18.3333 7.91668C18.3333 9.82501 17.0833 11.25 15.8333 12.5L11.2566 16.9275C11.1013 17.1059 10.9099 17.2491 10.695 17.3478C10.4801 17.4464 10.2467 17.4982 10.0102 17.4997C9.77374 17.5012 9.53967 17.4524 9.32353 17.3565C9.1074 17.2605 8.91415 17.1197 8.75663 16.9433L4.16663 12.5C2.91663 11.25 1.66663 9.83335 1.66663 7.91668Z" stroke="#94A3B8" stroke-width="2" stroke-linecap="round" stroke-linejoin="round"/>
</svg>
