<svg width="80" height="80" viewBox="0 0 80 80" fill="none" xmlns="http://www.w3.org/2000/svg">
<g filter="url(#filter0_i_119_451)">
<path d="M38.5398 10.8867C38.6837 10.6254 38.895 10.4074 39.1518 10.2557C39.4087 10.1039 39.7015 10.0238 39.9998 10.0238C40.2981 10.0238 40.5909 10.1039 40.8477 10.2557C41.1045 10.4074 41.3159 10.6254 41.4598 10.8867L51.2998 29.5667C51.5344 29.9992 51.862 30.3744 52.2588 30.6654C52.6557 30.9564 53.112 31.1558 53.5951 31.2495C54.0782 31.3432 54.5761 31.3288 55.0529 31.2073C55.5298 31.0857 55.9738 30.8601 56.3531 30.5467L70.6098 18.3333C70.8835 18.1107 71.2207 17.9807 71.573 17.962C71.9253 17.9433 72.2744 18.0368 72.5701 18.2292C72.8658 18.4215 73.0929 18.7027 73.2186 19.0323C73.3444 19.3619 73.3623 19.7229 73.2698 20.0633L63.8231 54.2167C63.6303 54.9156 63.2149 55.5325 62.6398 55.974C62.0648 56.4156 61.3614 56.6575 60.6365 56.6633H19.3665C18.6409 56.6583 17.9368 56.4166 17.3611 55.975C16.7854 55.5335 16.3694 54.9161 16.1765 54.2167L6.73312 20.0667C6.64062 19.7262 6.65852 19.3652 6.78426 19.0356C6.90999 18.706 7.13706 18.4248 7.43279 18.2325C7.72852 18.0402 8.07765 17.9466 8.42992 17.9653C8.78219 17.9841 9.11944 18.1141 9.39312 18.3367L23.6465 30.55C24.0258 30.8635 24.4698 31.0891 24.9467 31.2106C25.4235 31.3321 25.9214 31.3466 26.4045 31.2529C26.8875 31.1592 27.3439 30.9597 27.7408 30.6687C28.1376 30.3778 28.4651 30.0025 28.6998 29.57L38.5398 10.8867Z" stroke="url(#paint0_linear_119_451)" stroke-width="5" stroke-linecap="round" stroke-linejoin="round"/>
<path d="M16.6665 70H63.3332" stroke="url(#paint1_linear_119_451)" stroke-width="5" stroke-linecap="round" stroke-linejoin="round"/>
</g>
<defs>
<filter id="filter0_i_119_451" x="0" y="0" width="80" height="80" filterUnits="userSpaceOnUse" color-interpolation-filters="sRGB">
<feFlood flood-opacity="0" result="BackgroundImageFix"/>
<feBlend mode="normal" in="SourceGraphic" in2="BackgroundImageFix" result="shape"/>
<feColorMatrix in="SourceAlpha" type="matrix" values="0 0 0 0 0 0 0 0 0 0 0 0 0 0 0 0 0 0 127 0" result="hardAlpha"/>
<feOffset/>
<feGaussianBlur stdDeviation="12.5"/>
<feComposite in2="hardAlpha" operator="arithmetic" k2="-1" k3="1"/>
<feColorMatrix type="matrix" values="0 0 0 0 1 0 0 0 0 0.843137 0 0 0 0 0 0 0 0 0.6 0"/>
<feBlend mode="normal" in2="shape" result="effect1_innerShadow_119_451"/>
</filter>
<linearGradient id="paint0_linear_119_451" x1="40.0015" y1="10.0238" x2="40.0015" y2="56.6633" gradientUnits="userSpaceOnUse">
<stop stop-color="#FFD700"/>
<stop offset="1" stop-color="#F59E0B"/>
</linearGradient>
<linearGradient id="paint1_linear_119_451" x1="39.9998" y1="70" x2="39.9998" y2="71" gradientUnits="userSpaceOnUse">
<stop stop-color="#FFD700"/>
<stop offset="1" stop-color="#F59E0B"/>
</linearGradient>
</defs>
</svg>
