<svg width="67" height="12" viewBox="0 0 67 12" fill="none" xmlns="http://www.w3.org/2000/svg">
<path d="M60.9102 0C62.1583 0 62.6111 0.135985 63.0674 0.390625C63.5237 0.645265 63.8819 1.01898 64.126 1.49512C64.3699 1.9711 64.5 2.44331 64.5 3.74512V8.25488C64.5 9.55669 64.3699 10.0289 64.126 10.5049C63.8819 10.981 63.5237 11.3547 63.0674 11.6094C62.6111 11.864 62.1583 12 60.9102 12H46.0898C44.8417 12 44.3889 11.864 43.9326 11.6094C43.4763 11.3547 43.1181 10.981 42.874 10.5049C42.6301 10.0289 42.5 9.55669 42.5 8.25488V3.74512C42.5 2.44331 42.6301 1.9711 42.874 1.49512C43.1181 1.01898 43.4763 0.645265 43.9326 0.390625C44.3889 0.135985 44.8417 0 46.0898 0H60.9102ZM46.0898 1.04395C45.103 1.04395 44.7581 1.11312 44.4043 1.31055C44.1224 1.46786 43.9067 1.69223 43.7559 1.98633C43.5666 2.35556 43.5 2.71552 43.5 3.74512V8.25488C43.5 9.28448 43.5666 9.64444 43.7559 10.0137C43.9067 10.3078 44.1224 10.5321 44.4043 10.6895C44.7581 10.8869 45.103 10.9561 46.0898 10.9561H60.9102C61.897 10.9561 62.2419 10.8869 62.5957 10.6895C62.8776 10.5321 63.0933 10.3078 63.2441 10.0137C63.4334 9.64444 63.5 9.28448 63.5 8.25488V3.74512C63.5 2.71552 63.4334 2.35556 63.2441 1.98633C63.0933 1.69223 62.8776 1.46786 62.5957 1.31055C62.2419 1.11312 61.897 1.04395 60.9102 1.04395H46.0898ZM65.5 3.85059C65.5132 3.85761 67 4.65288 67 5.9375C66.9999 7.22774 65.5 8.02441 65.5 8.02441V3.85059Z" fill="white"/>
<rect x="44.5" y="1.99976" width="18" height="8" rx="1.6" fill="white"/>
<path d="M1.5 7.4502C1.77879 7.4502 1.91826 7.45058 2.03418 7.47363C2.51001 7.56831 2.88172 7.94025 2.97656 8.41602C2.99961 8.53188 3 8.67166 3 8.9502V10.124C3 10.4026 2.99956 10.5423 2.97656 10.6582C2.88188 11.1342 2.51019 11.5069 2.03418 11.6016C1.91826 11.6246 1.77879 11.624 1.5 11.624C1.22121 11.624 1.08174 11.6246 0.96582 11.6016C0.489812 11.5069 0.118123 11.1342 0.0234375 10.6582C0.000441025 10.5423 0 10.4026 0 10.124V8.9502C4.80817e-09 8.67166 0.000390381 8.53188 0.0234375 8.41602C0.118285 7.94025 0.489994 7.56831 0.96582 7.47363C1.08174 7.45058 1.22121 7.4502 1.5 7.4502ZM6.2998 5.36328C6.57852 5.36328 6.71809 5.36368 6.83398 5.38672C7.30991 5.48139 7.68255 5.85322 7.77734 6.3291C7.80039 6.44497 7.7998 6.58471 7.7998 6.86328V10.124C7.7998 10.4024 7.80031 10.5424 7.77734 10.6582C7.68266 11.1342 7.31001 11.5069 6.83398 11.6016C6.71809 11.6246 6.57849 11.624 6.2998 11.624C6.02113 11.624 5.88152 11.6246 5.76562 11.6016C5.2897 11.5068 4.91792 11.1342 4.82324 10.6582C4.80025 10.5424 4.7998 10.4025 4.7998 10.124V6.86328C4.7998 6.58471 4.80019 6.44497 4.82324 6.3291C4.91805 5.85336 5.28986 5.48146 5.76562 5.38672C5.88152 5.36367 6.02113 5.36328 6.2998 5.36328ZM10.9004 2.96289C11.1789 2.96289 11.3187 2.96328 11.4346 2.98633C11.9104 3.08116 12.2823 3.45381 12.377 3.92969C12.3999 4.04546 12.4004 4.18475 12.4004 4.46289V10.124C12.4004 10.4027 12.4 10.5423 12.377 10.6582C12.2823 11.1341 11.9104 11.5068 11.4346 11.6016C11.3187 11.6246 11.1789 11.624 10.9004 11.624C10.6219 11.624 10.4821 11.6245 10.3662 11.6016C9.89018 11.5069 9.51754 11.1342 9.42285 10.6582C9.39982 10.5423 9.40039 10.4027 9.40039 10.124V4.46289C9.40039 4.18478 9.39991 4.04545 9.42285 3.92969C9.51754 3.45366 9.89018 3.08102 10.3662 2.98633C10.4821 2.96333 10.6219 2.96289 10.9004 2.96289ZM15.5996 0.458984C15.8782 0.458984 16.0179 0.459406 16.1338 0.482422C16.6098 0.577108 16.9825 0.948788 17.0771 1.4248C17.1002 1.54072 17.0996 1.68019 17.0996 1.95898V10.124C17.0996 10.4027 17.1002 10.5423 17.0771 10.6582C16.9825 11.1342 16.6098 11.5069 16.1338 11.6016C16.0179 11.6245 15.8781 11.624 15.5996 11.624C15.3211 11.624 15.1813 11.6246 15.0654 11.6016C14.5896 11.5068 14.2177 11.1341 14.123 10.6582C14.1 10.5423 14.0996 10.4027 14.0996 10.124V1.95898C14.0996 1.68019 14.1 1.54072 14.123 1.4248C14.2177 0.948975 14.5897 0.577264 15.0654 0.482422C15.1813 0.459374 15.3211 0.458984 15.5996 0.458984Z" fill="white"/>
<path fill-rule="evenodd" clip-rule="evenodd" d="M29.8004 2.64693C32.0348 2.64704 34.1838 3.54292 35.8031 5.14941C35.9251 5.27344 36.12 5.27188 36.2401 5.14591L37.4058 3.91834C37.4666 3.85445 37.5005 3.7679 37.5 3.67786C37.4995 3.58781 37.4646 3.50168 37.4031 3.43854C33.1527 -0.81187 26.4474 -0.81187 22.197 3.43854C22.1355 3.50164 22.1005 3.58774 22.1 3.67778C22.0994 3.76783 22.1333 3.8544 22.194 3.91834L23.36 5.14591C23.48 5.27207 23.6751 5.27363 23.797 5.14941C25.4165 3.54281 27.5658 2.64693 29.8004 2.64693ZM29.8004 6.64085C31.0281 6.64077 32.2119 7.11693 33.1219 7.97679C33.245 8.09883 33.4389 8.09618 33.5589 7.97083L34.7232 6.74327C34.7845 6.67888 34.8185 6.59153 34.8177 6.50076C34.8168 6.40999 34.7811 6.32338 34.7185 6.26031C31.9473 3.57049 27.6558 3.57049 24.8847 6.26031C24.8221 6.32338 24.7864 6.41003 24.7855 6.50083C24.7847 6.59163 24.8189 6.67897 24.8803 6.74327L26.0443 7.97083C26.1643 8.09618 26.3582 8.09883 26.4812 7.97679C27.3906 7.1175 28.5736 6.64138 29.8004 6.64085ZM32.0379 9.57078C32.1002 9.50701 32.1345 9.41926 32.1327 9.32823C32.1309 9.23721 32.0932 9.15099 32.0285 9.08993C30.7423 7.95473 28.8585 7.95473 27.5723 9.08993C27.5075 9.15094 27.4698 9.23713 27.4679 9.32816C27.4661 9.41918 27.5003 9.50696 27.5625 9.57078L29.5769 11.6917C29.6359 11.754 29.7164 11.7891 29.8004 11.7891C29.8844 11.7891 29.9649 11.754 30.0239 11.6917L32.0379 9.57078Z" fill="white"/>
</svg>
